<svg id="Capa_1" data-name="Capa 1" xmlns="http://www.w3.org/2000/svg" viewBox="0 0 699.83 92.92"><defs><style>.cls-1{fill:#231f20;}.cls-2{fill:#221f1f;}.cls-3{fill:#0a0691;}.cls-4{fill:#3400ff;}</style></defs><title>logo</title><path class="cls-1" d="M388.32,87.41a4.19,4.19,0,0,0,2.7-.94,3.3,3.3,0,0,0,1.28-2.34H395a5.21,5.21,0,0,1-1,2.76A6.62,6.62,0,0,1,391.57,89a7,7,0,0,1-3.25.78,6.94,6.94,0,0,1-5.47-2.3,9.14,9.14,0,0,1-2-6.29v-.48a10.06,10.06,0,0,1,.91-4.38,6.86,6.86,0,0,1,2.59-3,7.43,7.43,0,0,1,4-1A6.76,6.76,0,0,1,393,74a6.09,6.09,0,0,1,2,4.41H392.3a4,4,0,0,0-1.24-2.68,3.84,3.84,0,0,0-2.75-1.06,4,4,0,0,0-3.41,1.59,7.43,7.43,0,0,0-1.21,4.57v.54a7.27,7.27,0,0,0,1.2,4.49A4.07,4.07,0,0,0,388.32,87.41Z" transform="translate(-31.59 -38.04)"/><path class="cls-1" d="M397.5,80.86a10,10,0,0,1,1-4.46,7.25,7.25,0,0,1,2.71-3.05,7.35,7.35,0,0,1,4-1.07,7.09,7.09,0,0,1,5.57,2.38A9.16,9.16,0,0,1,412.85,81v.2a10,10,0,0,1-.94,4.42,7.16,7.16,0,0,1-2.7,3,7.44,7.44,0,0,1-4,1.09,7.12,7.12,0,0,1-5.55-2.38,9.14,9.14,0,0,1-2.13-6.32Zm2.9.34a7.21,7.21,0,0,0,1.3,4.51,4.18,4.18,0,0,0,3.48,1.7,4.13,4.13,0,0,0,3.49-1.73,7.81,7.81,0,0,0,1.3-4.82,7.15,7.15,0,0,0-1.32-4.49,4.19,4.19,0,0,0-3.5-1.73,4.14,4.14,0,0,0-3.44,1.7A7.83,7.83,0,0,0,400.4,81.2Z" transform="translate(-31.59 -38.04)"/><path class="cls-1" d="M419.19,72.59l.1,2.12a6.13,6.13,0,0,1,5-2.43q5.34,0,5.39,6V89.45h-2.89V78.29a3.88,3.88,0,0,0-.83-2.7,3.33,3.33,0,0,0-2.55-.87,4.16,4.16,0,0,0-2.46.75,5,5,0,0,0-1.65,2v12h-2.88V72.59Z" transform="translate(-31.59 -38.04)"/><path class="cls-1" d="M443.89,85a2.11,2.11,0,0,0-.88-1.81,8.5,8.5,0,0,0-3.07-1.11,14.53,14.53,0,0,1-3.47-1.13,4.87,4.87,0,0,1-1.9-1.55,3.76,3.76,0,0,1-.62-2.16,4.35,4.35,0,0,1,1.75-3.5,6.84,6.84,0,0,1,4.48-1.43,7,7,0,0,1,4.66,1.48,4.68,4.68,0,0,1,1.78,3.78h-2.9a2.59,2.59,0,0,0-1-2,3.79,3.79,0,0,0-2.54-.86,3.91,3.91,0,0,0-2.46.69,2.16,2.16,0,0,0-.89,1.79,1.77,1.77,0,0,0,.83,1.58,10.16,10.16,0,0,0,3,1,15.24,15.24,0,0,1,3.5,1.15,5.23,5.23,0,0,1,2,1.61,4,4,0,0,1,.65,2.3A4.34,4.34,0,0,1,445,88.4a7.65,7.65,0,0,1-4.69,1.36,8.49,8.49,0,0,1-3.59-.72,5.83,5.83,0,0,1-2.44-2,4.87,4.87,0,0,1-.88-2.78h2.89a3,3,0,0,0,1.16,2.3,5.34,5.34,0,0,0,5.48.18A2,2,0,0,0,443.89,85Z" transform="translate(-31.59 -38.04)"/><path class="cls-1" d="M457.53,89.76A7.36,7.36,0,0,1,452,87.51a8.38,8.38,0,0,1-2.15-6V81a10.05,10.05,0,0,1,1-4.47,7.43,7.43,0,0,1,2.68-3.09,6.73,6.73,0,0,1,3.73-1.11,6.32,6.32,0,0,1,5.11,2.16,9.36,9.36,0,0,1,1.82,6.2v1.2H452.68a6,6,0,0,0,1.46,4,4.59,4.59,0,0,0,3.54,1.54,5,5,0,0,0,2.59-.63,6.29,6.29,0,0,0,1.85-1.65l1.77,1.37A7.1,7.1,0,0,1,457.53,89.76Zm-.36-15.12a3.88,3.88,0,0,0-2.93,1.27,6.15,6.15,0,0,0-1.46,3.56h8.44v-.21A5.52,5.52,0,0,0,460,75.85,3.66,3.66,0,0,0,457.17,74.64Z" transform="translate(-31.59 -38.04)"/><path class="cls-1" d="M470.41,72.59V91.4q0,4.86-4.41,4.86a5.55,5.55,0,0,1-1.76-.28V93.69a5.84,5.84,0,0,0,1.31.12,2,2,0,0,0,1.48-.52,2.64,2.64,0,0,0,.5-1.82V72.59Zm-3.17-4.48a1.75,1.75,0,0,1,.42-1.17,1.59,1.59,0,0,1,1.26-.49,1.64,1.64,0,0,1,1.28.48,1.7,1.7,0,0,1,.43,1.18,1.55,1.55,0,0,1-1.71,1.64,1.58,1.58,0,0,1-1.26-.47A1.68,1.68,0,0,1,467.24,68.11Z" transform="translate(-31.59 -38.04)"/><path class="cls-1" d="M474.29,80.86a10,10,0,0,1,1-4.46A7.15,7.15,0,0,1,482,72.28a7.11,7.11,0,0,1,5.57,2.38A9.15,9.15,0,0,1,489.64,81v.2a10,10,0,0,1-.94,4.42,7.2,7.2,0,0,1-2.69,3,7.47,7.47,0,0,1-4,1.09,7.13,7.13,0,0,1-5.56-2.38,9.14,9.14,0,0,1-2.13-6.32Zm2.9.34a7.28,7.28,0,0,0,1.3,4.51,4.41,4.41,0,0,0,7,0,7.87,7.87,0,0,0,1.29-4.82,7.15,7.15,0,0,0-1.32-4.49,4.37,4.37,0,0,0-6.94,0A7.83,7.83,0,0,0,477.19,81.2Z" transform="translate(-31.59 -38.04)"/><path class="cls-1" d="M515.4,81.2a10.08,10.08,0,0,1-1.76,6.21,5.65,5.65,0,0,1-4.77,2.35,6.2,6.2,0,0,1-4.83-2v8.12h-2.88V72.59h2.63l.14,1.87a5.94,5.94,0,0,1,4.9-2.18,5.74,5.74,0,0,1,4.8,2.29,10.18,10.18,0,0,1,1.77,6.37Zm-2.88-.32a7.47,7.47,0,0,0-1.22-4.51A3.91,3.91,0,0,0,508,74.72,4.26,4.26,0,0,0,504,77V85.1a4.24,4.24,0,0,0,4,2.31,3.91,3.91,0,0,0,3.3-1.65A8.14,8.14,0,0,0,512.52,80.88Z" transform="translate(-31.59 -38.04)"/><path class="cls-1" d="M527.21,75.17a8.82,8.82,0,0,0-1.41-.1A3.79,3.79,0,0,0,522,77.48v12h-2.88V72.59h2.8l0,1.94a4.48,4.48,0,0,1,4-2.25,3,3,0,0,1,1.27.21Z" transform="translate(-31.59 -38.04)"/><path class="cls-1" d="M528.79,80.86a10,10,0,0,1,1-4.46,7.15,7.15,0,0,1,6.68-4.12A7.1,7.1,0,0,1,542,74.66,9.16,9.16,0,0,1,544.14,81v.2a10,10,0,0,1-.95,4.42,7.07,7.07,0,0,1-2.69,3,7.44,7.44,0,0,1-4,1.09,7.11,7.11,0,0,1-5.55-2.38,9.14,9.14,0,0,1-2.13-6.32Zm2.9.34a7.21,7.21,0,0,0,1.3,4.51,4.18,4.18,0,0,0,3.48,1.7A4.13,4.13,0,0,0,540,85.68a7.87,7.87,0,0,0,1.29-4.82,7.15,7.15,0,0,0-1.31-4.49,4.2,4.2,0,0,0-3.5-1.73,4.14,4.14,0,0,0-3.44,1.7A7.77,7.77,0,0,0,531.69,81.2Z" transform="translate(-31.59 -38.04)"/><path class="cls-1" d="M549.17,89.45V74.82h-2.66V72.59h2.66V70.86a5.71,5.71,0,0,1,1.45-4.19,5.47,5.47,0,0,1,4.1-1.48,7.48,7.48,0,0,1,2,.26l-.16,2.32a8.62,8.62,0,0,0-1.56-.14,2.8,2.8,0,0,0-2.16.82,3.34,3.34,0,0,0-.77,2.36v1.78h3.6v2.23h-3.6V89.45Z" transform="translate(-31.59 -38.04)"/><path class="cls-1" d="M565.46,89.76a7.36,7.36,0,0,1-5.58-2.25,8.34,8.34,0,0,1-2.15-6V81a10.05,10.05,0,0,1,1-4.47,7.41,7.41,0,0,1,2.67-3.09,6.79,6.79,0,0,1,3.74-1.11,6.33,6.33,0,0,1,5.11,2.16,9.41,9.41,0,0,1,1.82,6.2v1.2H560.61a6,6,0,0,0,1.46,4,4.59,4.59,0,0,0,3.54,1.54,5,5,0,0,0,2.59-.63,6.42,6.42,0,0,0,1.85-1.65l1.76,1.37A7.08,7.08,0,0,1,565.46,89.76Zm-.36-15.12a3.86,3.86,0,0,0-2.93,1.27,6.22,6.22,0,0,0-1.47,3.56h8.45v-.21A5.47,5.47,0,0,0,568,75.85,3.62,3.62,0,0,0,565.1,74.64Z" transform="translate(-31.59 -38.04)"/><path class="cls-1" d="M585.18,85a2.11,2.11,0,0,0-.88-1.81,8.42,8.42,0,0,0-3.07-1.11,14.68,14.68,0,0,1-3.47-1.13,4.87,4.87,0,0,1-1.9-1.55,3.76,3.76,0,0,1-.62-2.16,4.38,4.38,0,0,1,1.75-3.5,6.85,6.85,0,0,1,4.49-1.43,7,7,0,0,1,4.65,1.48,4.68,4.68,0,0,1,1.78,3.78H585a2.59,2.59,0,0,0-1-2,3.78,3.78,0,0,0-2.53-.86,4,4,0,0,0-2.47.69,2.16,2.16,0,0,0-.89,1.79A1.77,1.77,0,0,0,579,78.7a10.25,10.25,0,0,0,3,1,15.3,15.3,0,0,1,3.49,1.15,5.16,5.16,0,0,1,2,1.61,4,4,0,0,1,.65,2.3,4.34,4.34,0,0,1-1.81,3.63,7.65,7.65,0,0,1-4.69,1.36A8.41,8.41,0,0,1,578,89a5.77,5.77,0,0,1-2.44-2,4.8,4.8,0,0,1-.88-2.78h2.88a3,3,0,0,0,1.16,2.3,5.34,5.34,0,0,0,5.48.18A2,2,0,0,0,585.18,85Z" transform="translate(-31.59 -38.04)"/><path class="cls-1" d="M591.84,68.11a1.7,1.7,0,0,1,.43-1.18,1.92,1.92,0,0,1,2.54,0,1.66,1.66,0,0,1,.44,1.18,1.78,1.78,0,0,1-3,1.17A1.64,1.64,0,0,1,591.84,68.11ZM595,89.45h-2.88V72.59H595Z" transform="translate(-31.59 -38.04)"/><path class="cls-1" d="M598.8,80.86a10,10,0,0,1,1-4.46,7.15,7.15,0,0,1,6.67-4.12A7.12,7.12,0,0,1,612,74.66,9.2,9.2,0,0,1,614.15,81v.2a10,10,0,0,1-.94,4.42,7.16,7.16,0,0,1-2.7,3,7.41,7.41,0,0,1-4,1.09,7.13,7.13,0,0,1-5.56-2.38,9.14,9.14,0,0,1-2.13-6.32Zm2.9.34a7.28,7.28,0,0,0,1.3,4.51,4.41,4.41,0,0,0,7,0,7.87,7.87,0,0,0,1.29-4.82A7.15,7.15,0,0,0,610,76.37a4.19,4.19,0,0,0-3.5-1.73,4.14,4.14,0,0,0-3.44,1.7A7.83,7.83,0,0,0,601.7,81.2Z" transform="translate(-31.59 -38.04)"/><path class="cls-1" d="M620.49,72.59l.1,2.12a6.15,6.15,0,0,1,5-2.43q5.34,0,5.39,6V89.45h-2.88V78.29a3.88,3.88,0,0,0-.84-2.7,3.33,3.33,0,0,0-2.55-.87a4.16,4.16,0,0,0-2.46.75,5.18,5.18,0,0,0-1.65,2v12h-2.88V72.59Z" transform="translate(-31.59 -38.04)"/><path class="cls-1" d="M645.79,89.45a6.12,6.12,0,0,1-.41-1.78,6.44,6.44,0,0,1-4.8,2.09,6,6,0,0,1-4.09-1.41,4.58,4.58,0,0,1-1.6-3.58,4.76,4.76,0,0,1,2-4.09,9.43,9.43,0,0,1,5.63-1.46h2.81V77.9a3.26,3.26,0,0,0-.91-2.41,3.65,3.65,0,0,0-2.66-.89,4.19,4.19,0,0,0-2.59.78,2.28,2.28,0,0,0-1,1.88h-2.89a4,4,0,0,1,.89-2.44A6.22,6.22,0,0,1,638.56,73a8.17,8.17,0,0,1,3.38-.68,6.66,6.66,0,0,1,4.56,1.45,5.22,5.22,0,0,1,1.72,4V85.5a9.63,9.63,0,0,0,.59,3.7v.25ZM641,87.25a5,5,0,0,0,2.57-.7,4.36,4.36,0,0,0,1.77-1.82V81.27h-2.26c-3.54,0-5.3,1-5.3,3.1a2.64,2.64,0,0,0,.9,2.12A3.47,3.47,0,0,0,641,87.25Z" transform="translate(-31.59 -38.04)"/><path class="cls-1" d="M655.87,89.45H653V65.51h2.88Z" transform="translate(-31.59 -38.04)"/><path class="cls-1" d="M667.68,80.88a9.84,9.84,0,0,1,1.84-6.24A6.27,6.27,0,0,1,679,74.3V65.51h2.88V89.45h-2.65l-.14-1.81a5.88,5.88,0,0,1-4.82,2.12,5.75,5.75,0,0,1-4.77-2.4,10,10,0,0,1-1.85-6.27Zm2.88.32a7.46,7.46,0,0,0,1.19,4.49A3.83,3.83,0,0,0,675,87.31a4.22,4.22,0,0,0,4-2.46V77.11a4.26,4.26,0,0,0-4-2.39,3.85,3.85,0,0,0-3.3,1.64A8.2,8.2,0,0,0,670.56,81.2Z" transform="translate(-31.59 -38.04)"/><path class="cls-1" d="M693.38,89.76a7.36,7.36,0,0,1-5.58-2.25,8.34,8.34,0,0,1-2.15-6V81a10.05,10.05,0,0,1,1-4.47,7.43,7.43,0,0,1,2.68-3.09A6.73,6.73,0,0,1,693,72.28a6.33,6.33,0,0,1,5.11,2.16,9.36,9.36,0,0,1,1.82,6.2v1.2H688.53a6,6,0,0,0,1.46,4,4.59,4.59,0,0,0,3.54,1.54,5,5,0,0,0,2.59-.63A6.29,6.29,0,0,0,698,85.13l1.77,1.37A7.1,7.1,0,0,1,693.38,89.76ZM693,74.64a3.88,3.88,0,0,0-2.93,1.27,6.22,6.22,0,0,0-1.47,3.56h8.45v-.21a5.52,5.52,0,0,0-1.18-3.41A3.66,3.66,0,0,0,693,74.64Z" transform="translate(-31.59 -38.04)"/><path class="cls-1" d="M392,124.15a6,6,0,0,1-.41-1.78,6.41,6.41,0,0,1-4.8,2.09,6,6,0,0,1-4.09-1.41,4.56,4.56,0,0,1-1.59-3.57,4.77,4.77,0,0,1,2-4.1,9.43,9.43,0,0,1,5.63-1.45h2.81V112.6a3.2,3.2,0,0,0-.91-2.4,3.61,3.61,0,0,0-2.66-.9,4.22,4.22,0,0,0-2.59.78,2.31,2.31,0,0,0-1,1.88h-2.9a3.94,3.94,0,0,1,.9-2.43,6,6,0,0,1,2.43-1.87,8.25,8.25,0,0,1,3.37-.68,6.7,6.7,0,0,1,4.57,1.45,5.27,5.27,0,0,1,1.71,4v7.76a9.54,9.54,0,0,0,.59,3.69v.25Zm-4.78-2.2a5,5,0,0,0,2.57-.7,4.27,4.27,0,0,0,1.76-1.82V116h-2.26q-5.29,0-5.3,3.1a2.64,2.64,0,0,0,.9,2.12A3.49,3.49,0,0,0,387.19,122Z" transform="translate(-31.59 -38.04)"/><path class="cls-1" d="M407.07,109.88a8,8,0,0,0-1.42-.11,3.8,3.8,0,0,0-3.85,2.41v12h-2.88V107.29h2.8l0,1.95a4.49,4.49,0,0,1,4-2.26,2.89,2.89,0,0,1,1.28.22Z" transform="translate(-31.59 -38.04)"/><path class="cls-1" d="M408.72,115.58a10,10,0,0,1,1.82-6.29,6.44,6.44,0,0,1,9.62-.3l.12-1.7h2.65v23.34h-2.88v-8a6,6,0,0,1-4.64,1.87,5.82,5.82,0,0,1-4.87-2.37,10.15,10.15,0,0,1-1.82-6.31Zm2.88.33a7.47,7.47,0,0,0,1.23,4.55,3.88,3.88,0,0,0,3.29,1.65,4.31,4.31,0,0,0,3.93-2.28v-8.25a4.32,4.32,0,0,0-3.9-2.23,3.93,3.93,0,0,0-3.32,1.66A8.16,8.16,0,0,0,411.6,115.91Z" transform="translate(-31.59 -38.04)"/><path class="cls-1" d="M438,122.48a6.12,6.12,0,0,1-4.94,2,5.26,5.26,0,0,1-4.11-1.56,6.79,6.79,0,0,1-1.42-4.64v-11h2.88v10.89q0,3.84,3.12,3.84,3.3,0,4.39-2.47V107.29h2.89v16.86H438Z" transform="translate(-31.59 -38.04)"/><path class="cls-1" d="M445.17,102.82a1.73,1.73,0,0,1,.43-1.19,1.61,1.61,0,0,1,1.27-.48,1.64,1.64,0,0,1,1.28.48,1.73,1.73,0,0,1,.43,1.19,1.54,1.54,0,0,1-1.71,1.63,1.63,1.63,0,0,1-1.27-.46A1.66,1.66,0,0,1,445.17,102.82Zm3.12,21.33H445.4V107.29h2.89Z" transform="translate(-31.59 -38.04)"/><path class="cls-1" d="M456.81,103.21v4.08H460v2.23h-3.15V120a2.35,2.35,0,0,0,.42,1.52,1.76,1.76,0,0,0,1.43.51,7.49,7.49,0,0,0,1.38-.19v2.32a8.31,8.31,0,0,1-2.22.31,3.57,3.57,0,0,1-2.91-1.17,5,5,0,0,1-1-3.32V109.52h-3.07v-2.23h3.07v-4.08Z" transform="translate(-31.59 -38.04)"/><path class="cls-1" d="M470.32,124.46a7.38,7.38,0,0,1-5.58-2.25,8.37,8.37,0,0,1-2.15-6v-.53a10.1,10.1,0,0,1,1-4.48,7.49,7.49,0,0,1,2.68-3.09A6.76,6.76,0,0,1,470,107a6.32,6.32,0,0,1,5.11,2.16,9.39,9.39,0,0,1,1.83,6.21v1.2H465.47a6,6,0,0,0,1.46,4,4.56,4.56,0,0,0,3.55,1.54,5.05,5.05,0,0,0,2.58-.62,6.51,6.51,0,0,0,1.86-1.66l1.76,1.38A7.07,7.07,0,0,1,470.32,124.46ZM470,109.35a3.84,3.84,0,0,0-2.93,1.27,6.09,6.09,0,0,0-1.46,3.56H474V114a5.46,5.46,0,0,0-1.18-3.41A3.64,3.64,0,0,0,470,109.35Z" transform="translate(-31.59 -38.04)"/><path class="cls-1" d="M487,122.11a4.13,4.13,0,0,0,2.7-.94,3.3,3.3,0,0,0,1.28-2.33h2.72a5.21,5.21,0,0,1-1,2.75,6.53,6.53,0,0,1-2.46,2.09,7,7,0,0,1-3.25.78,6.91,6.91,0,0,1-5.47-2.3,9.11,9.11,0,0,1-2-6.28v-.49a10.06,10.06,0,0,1,.91-4.38,6.83,6.83,0,0,1,2.59-3,7.35,7.35,0,0,1,4-1.06,6.72,6.72,0,0,1,4.71,1.7,6.06,6.06,0,0,1,2,4.41H491a4,4,0,0,0-1.24-2.69,3.85,3.85,0,0,0-2.75-1.05,4,4,0,0,0-3.41,1.58,7.45,7.45,0,0,0-1.2,4.57v.55a7.29,7.29,0,0,0,1.2,4.49A4,4,0,0,0,487,122.11Z" transform="translate(-31.59 -38.04)"/><path class="cls-1" d="M500.85,103.21v4.08H504v2.23h-3.15V120a2.35,2.35,0,0,0,.42,1.52,1.76,1.76,0,0,0,1.43.51,7.41,7.41,0,0,0,1.37-.19v2.32a8.18,8.18,0,0,1-2.21.31,3.57,3.57,0,0,1-2.91-1.17,5,5,0,0,1-1-3.32V109.52H494.9v-2.23H498v-4.08Z" transform="translate(-31.59 -38.04)"/><path class="cls-1" d="M517.77,122.48a6.12,6.12,0,0,1-4.94,2,5.26,5.26,0,0,1-4.11-1.56,6.79,6.79,0,0,1-1.42-4.64v-11h2.88v10.89q0,3.84,3.12,3.84c2.2,0,3.67-.82,4.39-2.47V107.29h2.89v16.86h-2.75Z" transform="translate(-31.59 -38.04)"/><path class="cls-1" d="M533.1,109.88a7.83,7.83,0,0,0-1.41-.11,3.79,3.79,0,0,0-3.85,2.41v12H525V107.29h2.81l0,1.95a4.47,4.47,0,0,1,4-2.26,2.84,2.84,0,0,1,1.27.22Z" transform="translate(-31.59 -38.04)"/><path class="cls-1" d="M545.54,124.15a6,6,0,0,1-.41-1.78,6.41,6.41,0,0,1-4.8,2.09,6,6,0,0,1-4.09-1.41,4.56,4.56,0,0,1-1.59-3.57,4.77,4.77,0,0,1,2-4.1,9.43,9.43,0,0,1,5.63-1.45h2.81V112.6a3.2,3.2,0,0,0-.91-2.4,3.61,3.61,0,0,0-2.66-.9,4.22,4.22,0,0,0-2.59.78,2.31,2.31,0,0,0-1,1.88H535a3.94,3.94,0,0,1,.9-2.43,6,6,0,0,1,2.43-1.87,8.25,8.25,0,0,1,3.37-.68,6.7,6.7,0,0,1,4.57,1.45,5.27,5.27,0,0,1,1.71,4v7.76a9.54,9.54,0,0,0,.59,3.69v.25Zm-4.78-2.2a5,5,0,0,0,2.57-.7,4.27,4.27,0,0,0,1.76-1.82V116h-2.26q-5.3,0-5.3,3.1a2.64,2.64,0,0,0,.9,2.12A3.49,3.49,0,0,0,540.76,122Z" transform="translate(-31.59 -38.04)"/><path class="cls-1" d="M565.91,119.93l3.92-12.64h3.09l-6.78,19.46q-1.57,4.22-5,4.21l-.55-.05-1.07-.2v-2.34l.78.07a3.81,3.81,0,0,0,2.28-.6,4.32,4.32,0,0,0,1.35-2.16l.64-1.72-6-16.67h3.15Z" transform="translate(-31.59 -38.04)"/><path class="cls-1" d="M593.8,122.48a6.12,6.12,0,0,1-4.94,2,5.26,5.26,0,0,1-4.11-1.56,6.79,6.79,0,0,1-1.42-4.64v-11h2.88v10.89q0,3.84,3.12,3.84,3.3,0,4.39-2.47V107.29h2.88v16.86h-2.74Z" transform="translate(-31.59 -38.04)"/><path class="cls-1" d="M609.13,109.88a7.83,7.83,0,0,0-1.41-.11,3.78,3.78,0,0,0-3.85,2.41v12H601V107.29h2.81l0,1.95a4.5,4.5,0,0,1,4-2.26,2.84,2.84,0,0,1,1.27.22Z" transform="translate(-31.59 -38.04)"/><path class="cls-1" d="M626.06,115.91a10.08,10.08,0,0,1-1.78,6.21,5.67,5.67,0,0,1-4.77,2.34,5.88,5.88,0,0,1-4.94-2.26l-.14,2h-2.65V100.21h2.88v8.93a5.86,5.86,0,0,1,4.82-2.16,5.7,5.7,0,0,1,4.82,2.32,10.33,10.33,0,0,1,1.76,6.36Zm-2.89-.33A7.86,7.86,0,0,0,622,111a3.78,3.78,0,0,0-3.28-1.61,4.25,4.25,0,0,0-4.1,2.65v7.3a4.37,4.37,0,0,0,4.13,2.65,3.75,3.75,0,0,0,3.23-1.61A8.27,8.27,0,0,0,623.17,115.58Z" transform="translate(-31.59 -38.04)"/><path class="cls-1" d="M640.1,124.15a6,6,0,0,1-.41-1.78,6.41,6.41,0,0,1-4.8,2.09,6,6,0,0,1-4.09-1.41,4.57,4.57,0,0,1-1.6-3.57,4.78,4.78,0,0,1,2-4.1,9.43,9.43,0,0,1,5.63-1.45h2.81V112.6a3.23,3.23,0,0,0-.91-2.4,3.61,3.61,0,0,0-2.66-.9,4.22,4.22,0,0,0-2.59.78,2.29,2.29,0,0,0-1,1.88h-2.89a4,4,0,0,1,.89-2.43,6.14,6.14,0,0,1,2.43-1.87,8.33,8.33,0,0,1,3.38-.68,6.66,6.66,0,0,1,4.56,1.45,5.28,5.28,0,0,1,1.72,4v7.76a9.54,9.54,0,0,0,.59,3.69v.25Zm-4.79-2.2a5,5,0,0,0,2.57-.7,4.3,4.3,0,0,0,1.77-1.82V116h-2.26c-3.54,0-5.3,1-5.3,3.1a2.64,2.64,0,0,0,.9,2.12A3.47,3.47,0,0,0,635.31,122Z" transform="translate(-31.59 -38.04)"/><path class="cls-1" d="M649.77,107.29l.1,2.12a6.15,6.15,0,0,1,5-2.43q5.34,0,5.39,6v11.14h-2.88V113a3.85,3.85,0,0,0-.84-2.69,3.34,3.34,0,0,0-2.55-.88,4.16,4.16,0,0,0-2.46.75,5.12,5.12,0,0,0-1.65,2v12h-2.88V107.29Z" transform="translate(-31.59 -38.04)"/><path class="cls-1" d="M664.67,102.82a1.73,1.73,0,0,1,.43-1.19,1.62,1.62,0,0,1,1.27-.48,1.64,1.64,0,0,1,1.28.48,1.73,1.73,0,0,1,.43,1.19,1.71,1.71,0,1,1-3.41,0Zm3.12,21.33H664.9V107.29h2.89Z" transform="translate(-31.59 -38.04)"/><path class="cls-1" d="M682.22,119.68a2.15,2.15,0,0,0-.88-1.82,8.5,8.5,0,0,0-3.07-1.11,14.82,14.82,0,0,1-3.48-1.12,5.05,5.05,0,0,1-1.9-1.56,3.72,3.72,0,0,1-.61-2.15,4.38,4.38,0,0,1,1.75-3.51,6.87,6.87,0,0,1,4.48-1.43,7,7,0,0,1,4.65,1.48,4.7,4.7,0,0,1,1.78,3.79h-2.89a2.64,2.64,0,0,0-1-2,3.76,3.76,0,0,0-2.53-.85,4,4,0,0,0-2.46.68,2.18,2.18,0,0,0-.89,1.79,1.74,1.74,0,0,0,.83,1.58,10.16,10.16,0,0,0,3,1,15.91,15.91,0,0,1,3.5,1.15,5.12,5.12,0,0,1,2,1.62,3.9,3.9,0,0,1,.65,2.3,4.31,4.31,0,0,1-1.81,3.62,7.55,7.55,0,0,1-4.69,1.36,8.6,8.6,0,0,1-3.58-.71,5.85,5.85,0,0,1-2.44-2,4.78,4.78,0,0,1-.88-2.78h2.88a3,3,0,0,0,1.16,2.3,4.51,4.51,0,0,0,2.86.85,4.68,4.68,0,0,0,2.63-.66A2,2,0,0,0,682.22,119.68Z" transform="translate(-31.59 -38.04)"/><path class="cls-1" d="M691.57,107.29l.08,1.87a6.22,6.22,0,0,1,5-2.18q3.54,0,4.81,2.71a6.36,6.36,0,0,1,2.19-2,6.46,6.46,0,0,1,3.19-.75q5.55,0,5.64,5.87v11.3H709.6V113a3.88,3.88,0,0,0-.83-2.7,3.61,3.61,0,0,0-2.77-.9,3.84,3.84,0,0,0-2.67,1A4,4,0,0,0,702.1,113v11.19h-2.9V113.1q0-3.67-3.6-3.68a3.86,3.86,0,0,0-3.88,2.42v12.31h-2.88V107.29Z" transform="translate(-31.59 -38.04)"/><path class="cls-1" d="M716.07,115.56a9.93,9.93,0,0,1,1-4.45,7.29,7.29,0,0,1,2.71-3.06,7.45,7.45,0,0,1,4-1.07,7.11,7.11,0,0,1,5.57,2.38,9.17,9.17,0,0,1,2.12,6.34v.21a10.06,10.06,0,0,1-.94,4.42,7.23,7.23,0,0,1-2.69,3,7.47,7.47,0,0,1-4,1.09,7.09,7.09,0,0,1-5.56-2.38,9.13,9.13,0,0,1-2.12-6.31Zm2.89.35a7.18,7.18,0,0,0,1.31,4.5,4.41,4.41,0,0,0,7,0,7.92,7.92,0,0,0,1.29-4.83,7.17,7.17,0,0,0-1.32-4.49,4.38,4.38,0,0,0-6.94,0A7.83,7.83,0,0,0,719,115.91Z" transform="translate(-31.59 -38.04)"/><path class="cls-2" d="M91.26,62.1c-3.7-4.41-9.06-6.91-16-6.91-14.06,0-24.42,11.44-24.42,27.16S61.24,109.5,74.7,109.5a20.16,20.16,0,0,0,17.39-9L107.57,112c-7,10-18.93,14.65-30.49,14.65-26.32,0-45.49-17.27-45.49-44.3S50.76,38,77.08,38c9.41,0,21.32,3.22,28.47,12.39Z" transform="translate(-31.59 -38.04)"/><path class="cls-2" d="M125,40.18h31.33c17.5,0,32,5.6,32,25.61,0,19.77-13.45,25.85-31.2,25.85H143.62v32.87H125Zm18.58,35.73H156c6.55,0,13.1-2.26,13.1-10.12,0-8.69-8.81-9.88-16-9.88h-9.53Z" transform="translate(-31.59 -38.04)"/><path class="cls-2" d="M358,92c0,19.89-12.15,34.66-35.50,34.66S286.92,111.88,286.92,92V40.18H305.5v51.1c0,10.36,7.15,18.22,17,18.22s16.92-7.86,16.92-18.22V40.18H358Z" transform="translate(-31.59 -38.04)"/><polygon class="cls-3" points="189.8 2.14 211.94 2.14 245.87 86.48 223.73 86.48 189.8 2.14"/><polygon class="cls-4" points="211.94 2.14 189.8 2.14 155.87 86.48 178.01 86.48 211.94 2.14"/></svg>
