<svg id="Capa_1" data-name="Capa 1" xmlns="http://www.w3.org/2000/svg" viewBox="0 0 326.44 88.61"><defs><style>.cls-1{fill:#221f1f;}.cls-2{fill:#0a0691;}.cls-3{fill:#3400ff;}</style></defs><title>iso</title><path class="cls-1" d="M78.59,42.61c-3.69-4.41-9-6.91-16-6.91-14.05,0-24.41,11.44-24.41,27.16S48.58,90,62,90A20.16,20.16,0,0,0,79.43,81L94.91,92.51c-7,10-18.94,14.65-30.49,14.65-26.32,0-45.5-17.27-45.5-44.3S38.1,18.55,64.42,18.55c9.41,0,21.32,3.22,28.47,12.39Z" transform="translate(-18.92 -18.55)"/><path class="cls-1" d="M112.38,20.69H143.7c17.51,0,32,5.6,32,25.61,0,19.77-13.46,25.85-31.2,25.85H131V105H112.38ZM131,56.43h12.38c6.56,0,13.11-2.27,13.11-10.13,0-8.69-8.82-9.88-16-9.88H131Z" transform="translate(-18.92 -18.55)"/><path class="cls-1" d="M345.36,72.5c0,19.89-12.14,34.66-35.49,34.66S274.26,92.39,274.26,72.5V20.69h18.58v51.1c0,10.36,7.14,18.22,17,18.22s16.91-7.86,16.91-18.22V20.69h18.58Z" transform="translate(-18.92 -18.55)"/><polygon class="cls-2" points="189.8 2.14 211.94 2.14 245.87 86.48 223.73 86.48 189.8 2.14"/><polygon class="cls-3" points="211.94 2.14 189.8 2.14 155.87 86.48 178.01 86.48 211.94 2.14"/></svg>
